<svg xmlns="http://www.w3.org/2000/svg" viewBox="0 0 500 500" width="500" height="500" class="illustration"><defs><style>.cls-1,.cls-9{isolation:isolate;}.cls-2{fill:#f2f2f2;}.cls-3,.cls-7{fill:#c3c7c9;}.cls-3{opacity:0.26;}.cls-4{fill:#24285b;}.cls-5{fill:#fff;}.cls-6{fill:#f0457d;}.cls-8{fill:#0099f5;}.cls-9{opacity:0.09;}.cls-10{fill:#ffbeb3;}.cls-11{fill:#f9a498;}.cls-12{fill:#efe8e4;}.cls-12,.cls-15{mix-blend-mode:multiply;}.cls-13{fill:#9c5631;}.cls-14{opacity:0.5;mix-blend-mode:soft-light;}.cls-15{opacity:0.1;}.cls-16{fill:#afaaa8;}</style></defs><title>Digital Nomad</title><g class="cls-1"><g id="Layer_1" data-name="Layer 1"><path class="cls-2" d="M467,136.58V367.35a12.69,12.69,0,0,1-12.7,12.7H107.56a12.7,12.7,0,0,1-12.71-12.7V136.58Z"></path><path class="cls-3" d="M94.85,136.58v29.48H447.39v214h6.86a12.69,12.69,0,0,0,12.7-12.7V136.58Z"></path><path class="cls-4" d="M467,92.63v56.2H94.85V92.63a12.71,12.71,0,0,1,12.71-12.71H454.25A12.7,12.7,0,0,1,467,92.63Z"></path><circle class="cls-5" cx="176" cy="112.02" r="6.18"></circle><circle class="cls-5" cx="147.84" cy="112.02" r="6.18"></circle><circle class="cls-5" cx="119.68" cy="112.02" r="6.18"></circle><rect class="cls-6" x="166.31" y="186.99" width="232.31" height="53.81" rx="10.81"></rect><path class="cls-7" d="M262.22,315.14H168.71a4,4,0,0,1,0-8h93.51a4,4,0,0,1,0,8Z"></path><path class="cls-7" d="M394.62,277.38H168.71a4,4,0,0,1,0-8H394.62a4,4,0,0,1,0,8Z"></path><path class="cls-7" d="M394.62,315.14H287.91a4,4,0,1,1,0-8H394.62a4,4,0,0,1,0,8Z"></path><path class="cls-7" d="M317.21,353.64H168.71a4,4,0,0,1,0-8h148.5a4,4,0,0,1,0,8Z"></path><path class="cls-7" d="M394.62,353.64H334.23a4,4,0,0,1,0-8h60.39a4,4,0,0,1,0,8Z"></path><path class="cls-8" d="M220.4,411.48v9.74H31.69c-4.66-44.51,36.88-71.65,77.52-71.55,21,.23,50.45-2.12,69.75,7.21C201.13,365.91,220.58,386.48,220.4,411.48Z"></path><path class="cls-9" d="M220.4,411.48c.19-25-19.27-45.57-41.44-54.6-19.3-9.33-48.76-7-69.75-7.21a92.57,92.57,0,0,0-36.75,7.52,89.83,89.83,0,0,1,9.28-.47c21,.23,50.44-2.12,69.74,7.21,22.17,9,41.63,29.6,41.44,54.6v2.69H220.4Z"></path><path class="cls-9" d="M124.1,381.63l-18.84,11.42a2.26,2.26,0,0,1-3.13-.79L81.77,357.32a2.26,2.26,0,0,1,.9-3.14l18.75-9.82a2.27,2.27,0,0,1,3,.82l20.45,33.33A2.26,2.26,0,0,1,124.1,381.63Z"></path><path class="cls-9" d="M128,381.63l18.84,11.42a2.26,2.26,0,0,0,3.13-.79l20.36-34.94a2.26,2.26,0,0,0-.91-3.14l-18.74-9.82a2.27,2.27,0,0,0-3,.82l-20.45,33.33A2.26,2.26,0,0,0,128,381.63Z"></path><path class="cls-4" d="M143.55,379.21l-17.5-6.43h0l-17.49,6.43,12.1,21.32-4.54,20.68H136l-4.54-20.68Z"></path><path class="cls-10" d="M126.05,376.06a20.85,20.85,0,0,1-20.85-20.85V299.79c.47-27.38,41.23-27.41,41.7,0v55.42A20.85,20.85,0,0,1,126.05,376.06Z"></path><path class="cls-11" d="M145.89,361.62c-5.92,19.15-33.94,18.92-39.69,0C114.63,373.73,137.1,374.15,145.89,361.62Z"></path><path class="cls-8" d="M124.27,377.14,107,387.61a2.07,2.07,0,0,1-2.87-.73l-18.66-32a2.08,2.08,0,0,1,.83-2.88l17.18-9a2.08,2.08,0,0,1,2.73.75L125,374.28A2.08,2.08,0,0,1,124.27,377.14Z"></path><path class="cls-8" d="M127.85,377.14l17.26,10.47a2.06,2.06,0,0,0,2.86-.73l18.66-32a2.07,2.07,0,0,0-.83-2.88l-17.17-9a2.08,2.08,0,0,0-2.73.75l-18.74,30.54A2.06,2.06,0,0,0,127.85,377.14Z"></path><path class="cls-10" d="M84.56,279.31c-1-4.94-5.69-9.53-12.14-8.12s-6.47,7.42-5.49,12.37c.06.25,3.23,13.62,5.09,16.42s4.57,8.16,9.11,6.64c3-1,4.76-6.35,5.47-10.21S84.56,279.31,84.56,279.31Z"></path><path class="cls-10" d="M166.66,279.11c1-4.94,5.68-9.53,12.13-8.12s7.09,7.6,6.11,12.54c-.05.26-3.48,12.62-5.09,16.43-1.33,3.14-4.93,8.66-9.61,6.72-2.93-1.2-4.88-6.61-5.59-10.47S166.66,279.11,166.66,279.11Z"></path><path class="cls-10" d="M173,242.15c0-21.44-13.28-43-48.44-43s-47.93,23.54-47.93,45c0,1.12-.11,59.41,6.72,72.8s25.62,27,42.4,27.1c18.35.08,34.85-11.71,42.55-27.1S173,242.15,173,242.15Z"></path><path class="cls-11" d="M90.12,247l.93.66c1,.91-3.87,11.67-2.47,11.73,7,1.46,15.33-13.62,22.13-11.51,12,3.73,34.52,33.92,56.63,33.33,5.81-5.6,5.62-39,5.62-39,0-21.44-13.28-43-48.44-43-29.14,0-42.86,16.16-46.72,33.9A21.92,21.92,0,0,1,90.12,247Z"></path><path class="cls-12" d="M166.68,319.81c.07-.12.16-.23.24-.35-.4.29-.81.54-1.21.82C166,320.14,166.35,320,166.68,319.81Z"></path><path class="cls-11" d="M133.68,339.56c-16.78-.06-35.58-13.72-42.4-27.1s-6.72-71.68-6.72-72.81A46.67,46.67,0,0,1,93.23,212a44.69,44.69,0,0,1,2.21-5.14C82,215.48,76.59,230.25,76.59,244.18c0,1.12-.11,59.41,6.72,72.8s25.62,27,42.4,27.1a45.7,45.7,0,0,0,26-8.38A44.25,44.25,0,0,1,133.68,339.56Z"></path><path class="cls-13" d="M180.82,237c-4.32-23.6-23.6-40.71-55.11-40.51S73.64,216,69.51,237.82c-1.77,9.35-3.14,27.14-2.41,37.74,5.32-4.37,7.51-4.94,10.09-3.92,1.76,19.28,6,19,6,19s.39-13.09,1.25-21.74,15-10.22,22.09-25.18c22.42-1,36.58,27.74,61.17,29.31-2.44,14.21,2.95,19.87,2.95,19.87s.57-11.74,2.55-17.31a5.94,5.94,0,0,1,9.44-2.75C183.81,264,183.21,250.07,180.82,237Z"></path><g class="cls-14"><path class="cls-5" d="M180.82,237c-4.32-23.6-23.6-40.71-55.11-40.51-27.58.17-46.85,15-53.95,33.44,8.84-15.14,26.56-26.51,50.65-26.66,31.51-.19,50.78,16.92,55.11,40.52a142.47,142.47,0,0,1,2.35,27.81,6.12,6.12,0,0,1,2.72,1.2C183.81,264,183.21,250.07,180.82,237Z"></path></g><g class="cls-15"><path class="cls-16" d="M106.48,232.5c-7.08,15-29.89,29.05-39.38,31.85,0-.49,0-1.06-.07-1.57a127.48,127.48,0,0,0,.07,12.78c5.32-4.37,7.51-4.94,10.09-3.92,1.76,19.28,6,19,6,19s.39-13.09,1.25-21.74,15-10.22,22.09-25.18c22.33-1,36.47,27.48,60.86,29.27C149.35,266.74,128.9,231.53,106.48,232.5Z"></path></g></g></g></svg>